<svg xmlns="http://www.w3.org/2000/svg" xmlns:xlink="http://www.w3.org/1999/xlink" version="1.1" id="Layer_1" x="0px" y="0px" style="enable-background:new 0 0 2000 2000;" xml:space="preserve" viewBox="320.03 849.52 1359.94 300.96">
<style type="text/css">
	.st0{fill:#292833;}
	.st1{fill:url(#SVGID_1_);}
</style>
<g>
	<g>
		<g>
			<path class="st0" d="M778.62,995.03v29.79h53.92l-0.27,1.54c-0.66,7.31-3.57,14.67-8.79,21.98     c-5.22,7.31-12.26,13.36-20.99,18.19c-8.79,4.78-18.74,7.2-29.84,7.2c-12.09,0-23.19-3.08-33.2-9.23     c-10.06-6.21-17.97-14.84-23.69-26.05c-5.77-11.21-8.63-24.02-8.63-38.42c0-14.62,2.86-27.54,8.63-38.75     c5.72-11.16,13.63-19.79,23.69-25.89c10-6.05,21.1-9.07,33.2-9.07c12.59,0,23.96,3.35,34.19,10     c10.28,6.71,17.7,15.28,22.31,25.72h42.32c-3.74-13.14-10.11-25.45-18.96-36.82c-8.9-11.38-20.17-20.61-33.91-27.59     c-13.69-7.03-28.96-10.55-45.95-10.55c-19.62,0-37.59,4.84-53.75,14.45c-16.21,9.62-29.02,22.97-38.42,40.12     c-9.45,17.15-14.12,36.6-14.12,58.37c0,21.76,4.67,41.17,14.12,58.31c9.4,17.15,22.2,30.56,38.42,40.18     c16.16,9.62,34.13,14.4,53.75,14.4c13.8,0,26.49-2.8,37.98-8.46c11.49-5.66,20.39-12.31,26.66-20.06h1.54l3.19,25.39h31.05     V995.03H778.62z"/>
			<path class="st0" d="M913.77,890.27v219.51h38.31V890.27H913.77z"/>
			<path class="st0" d="M1119.21,977.11c-5.44-9.18-13.25-16.32-23.52-21.49c-10.22-5.11-22.26-7.69-36.05-7.69     c-13.41,0-25.01,2.36-34.79,7.09c-9.84,4.67-17.48,10.94-22.92,18.63c-5.44,7.75-8.57,16.05-9.4,24.79h37.92     c1.26-5,4.4-9.4,9.4-13.14c5.06-3.79,11.65-5.66,19.79-5.66c8.96,0,16.16,2.64,21.49,7.97c5.33,5.33,7.97,12.31,7.97,20.89v3.74     h-37.92c-21.32,0-37.43,4.67-48.31,13.96c-10.88,9.34-16.32,21.93-16.32,37.81c0,9.18,2.36,17.53,7.09,24.95     c4.67,7.42,11.32,13.25,19.9,17.53c8.57,4.29,18.63,6.43,30.12,6.43c10.66,0,20.06-1.92,28.25-5.77     c8.13-3.9,13.96-8.24,17.53-13.03h1.59l3.13,15.66h33.25v-101.29C1127.4,996.78,1124.65,986.34,1119.21,977.11z M1089.09,1044.55     c0,11.49-3.41,20.61-10.33,27.32c-6.87,6.65-16.43,10-28.52,10c-7.97,0-14.12-1.87-18.52-5.61c-4.4-3.79-6.6-8.79-6.6-15.06     c0-6.49,2.47-11.65,7.36-15.55c4.95-3.85,12.42-5.77,22.42-5.77h34.19V1044.55z"/>
			<path class="st0" d="M1304.75,979.64c-5.33-10.06-12.75-17.81-22.31-23.36c-9.51-5.55-20.34-8.35-32.43-8.35     c-10.66,0-20.01,1.92-27.92,5.66c-7.97,3.79-13.91,7.97-17.86,12.59h-1.59l-3.13-15.06h-32.92v158.67h38.25v-90.3     c0-10.06,3.41-18.41,10.22-25.12c6.76-6.71,15.17-10.06,25.23-10.06c9.84,0,17.97,3.3,24.46,9.89c6.49,6.6,9.73,15,9.73,25.28     v90.3h38.25v-95.36C1312.72,1001.29,1310.09,989.69,1304.75,979.64z"/>
			<path class="st0" d="M1448.37,1070.1c-6.16,4.95-14.23,7.36-24.29,7.36c-7.75,0-14.78-1.98-21.16-5.94     c-6.38-3.96-11.49-9.51-15.22-16.65c-3.74-7.09-5.66-15.22-5.66-24.46c0-9.18,1.92-17.31,5.66-24.46     c3.74-7.09,8.85-12.64,15.22-16.6c6.38-3.96,13.41-5.99,21.16-5.99c9.84,0,17.81,2.42,24.02,7.25     c6.16,4.78,10.39,10.88,12.7,18.19h38.86c-2.09-10.88-6.38-20.94-12.86-30.12c-6.49-9.23-15.06-16.65-25.72-22.26     c-10.66-5.66-22.97-8.52-36.99-8.52c-15.06,0-28.74,3.57-41.11,10.72c-12.31,7.09-21.98,16.93-28.96,29.46     c-7.04,12.53-10.55,26.66-10.55,42.32c0,15.72,3.52,29.79,10.55,42.37c6.98,12.53,16.65,22.37,28.96,29.46     c12.37,7.14,26.05,10.66,41.11,10.66c14.01,0,26.33-2.8,36.99-8.46c10.66-5.66,19.24-13.19,25.72-22.59     c6.49-9.4,10.77-19.73,12.86-31.05h-38.86C1458.7,1058.78,1454.52,1065.21,1448.37,1070.1z"/>
			<path class="st0" d="M1679.97,1027.01c0-14.89-3.35-28.3-10.17-40.34c-6.82-11.98-16.16-21.49-28.08-28.36     c-11.93-6.93-25.17-10.39-39.79-10.39c-15.06,0-28.8,3.57-41.11,10.72c-12.37,7.09-21.98,16.93-29.02,29.46     c-6.98,12.53-10.5,26.66-10.5,42.32c0,15.72,3.52,29.79,10.5,42.37c7.04,12.53,16.65,22.37,29.02,29.46     c12.31,7.14,26.05,10.66,41.11,10.66c19.4,0,35.45-4.95,48.15-14.89c12.64-9.89,21.16-21.49,25.56-34.63h-39.24     c-2.69,4.78-7.15,8.85-13.3,12.2c-6.21,3.35-13.25,5-21.16,5c-10.88,0-20.34-3.46-28.25-10.5c-7.97-6.98-12.64-16.05-14.12-27.1     h118.88C1679.48,1039.21,1679.97,1033.88,1679.97,1027.01z M1559.55,1016.96c1.7-10.88,6.27-19.79,13.8-26.82     c7.53-6.98,17.04-10.5,28.58-10.5c10.83,0,19.95,3.57,27.26,10.66c7.31,7.09,11.49,15.99,12.53,26.66H1559.55z"/>
		</g>
	</g>
	<linearGradient id="SVGID_1_" gradientUnits="userSpaceOnUse" x1="458.6738" y1="850.6074" x2="492.4664" y2="1145.4353">
		<stop offset="0" style="stop-color:#FC8B79"/>
		<stop offset="1" style="stop-color:#FF7062"/>
	</linearGradient>
	<polygon class="st1" points="620.94,1039.3 510.03,1039.3 588.51,1117.78 555.81,1150.48 477.33,1072 320.03,914.7 352.73,882    431.16,960.43 431.16,849.52 477.38,849.52 477.38,960.43 555.81,882 588.51,914.7 510.08,993.08 620.99,993.08  "/>
</g>
</svg>